<?xml version="1.0" encoding="UTF-8" standalone="no"?>
<!-- Created with Inkscape (http://www.inkscape.org/) -->

<svg
   xmlns:dc="http://purl.org/dc/elements/1.1/"
   xmlns:cc="http://creativecommons.org/ns#"
   xmlns:rdf="http://www.w3.org/1999/02/22-rdf-syntax-ns#"
   xmlns:svg="http://www.w3.org/2000/svg"
   xmlns="http://www.w3.org/2000/svg"
   xmlns:sodipodi="http://sodipodi.sourceforge.net/DTD/sodipodi-0.dtd"
   xmlns:inkscape="http://www.inkscape.org/namespaces/inkscape"
   width="227.44206mm"
   height="227.44206mm"
   viewBox="0 0 227.44206 227.44206"
   version="1.1"
   id="svg1045"
   inkscape:version="0.92.4 (5da689c313, 2019-01-14)"
   sodipodi:docname="logo_iris.svg">
  <defs
     id="defs1039" />
  <sodipodi:namedview
     id="base"
     pagecolor="#ffffff"
     bordercolor="#666666"
     borderopacity="1.0"
     inkscape:pageopacity="0.0"
     inkscape:pageshadow="2"
     inkscape:zoom="0.24748737"
     inkscape:cx="-757.47939"
     inkscape:cy="945.95393"
     inkscape:document-units="mm"
     inkscape:current-layer="layer1"
     showgrid="false"
     fit-margin-top="20"
     fit-margin-left="20"
     fit-margin-right="20"
     fit-margin-bottom="20"
     inkscape:window-width="1920"
     inkscape:window-height="986"
     inkscape:window-x="-11"
     inkscape:window-y="-11"
     inkscape:window-maximized="1" />
  <metadata
     id="metadata1042">
    <rdf:RDF>
      <cc:Work
         rdf:about="">
        <dc:format>image/svg+xml</dc:format>
        <dc:type
           rdf:resource="http://purl.org/dc/dcmitype/StillImage" />
        <dc:title></dc:title>
      </cc:Work>
    </rdf:RDF>
  </metadata>
  <g
     inkscape:label="Calque 1"
     inkscape:groupmode="layer"
     id="layer1"
     transform="translate(10.070363,-44.103962)">
    <g
       transform="matrix(0.02728166,0,0,0.02728166,112.42725,298.02341)"
       id="g1621">
      <circle
         transform="translate(-255.82423,-1182.9451)"
         id="circle825"
         r="3435.3127"
         cy="-3955.9802"
         cx="-65.878288"
         style="fill:#37405b;fill-opacity:1;stroke-width:8.26392269" />
      <circle
         transform="translate(-255.82423,-1182.9451)"
         id="circle831"
         r="2693.2124"
         cy="-3955.9802"
         cx="-65.878288"
         style="fill:#414860;fill-opacity:1;stroke-width:8.26392269" />
      <g
         id="g875"
         transform="matrix(8.2639227,0,0,8.2639227,-6108.8802,-9209.2988)">
        <path
           id="path837"
           d="M 700,738.6 C 608.2,738.6 519.7,713 444.2,664.6 375.5,620.5 321.5,560.4 287.3,490 c 34.2,-70.4 88.2,-130.5 156.9,-174.6 75.5,-48.4 164,-74 255.8,-74 91.8,0 180.3,25.6 255.8,74 68.7,44.1 122.7,104.2 156.9,174.6 -34.2,70.4 -88.2,130.5 -156.9,174.6 -75.5,48.4 -164,74 -255.8,74 z"
           inkscape:connector-curvature="0"
           style="fill:#ffffff" />
        <path
           id="path839"
           d="M 700,738.6 C 608.2,738.6 519.7,713 444.2,664.6 375.5,620.5 321.5,560.4 287.3,490 h 825.4 c -34.2,70.4 -88.2,130.5 -156.9,174.6 -75.5,48.4 -164,74 -255.8,74 z"
           inkscape:connector-curvature="0"
           style="fill:#ffd3bb;fill-opacity:1" />
        <circle
           id="circle841"
           r="234"
           cy="490"
           cx="700"
           style="fill:#0b152f;fill-opacity:1" />
        <g
           id="g857">
          <g
             id="g855">
            <path
               id="path853"
               d="m 700,552.4 c -34.4,0 -62.4,-28 -62.4,-62.4 0,-34.4 28,-62.4 62.4,-62.4 34.4,0 62.4,28 62.4,62.4 0,34.4 -28,62.4 -62.4,62.4 z"
               inkscape:connector-curvature="0"
               style="fill:#0b152f" />
          </g>
        </g>
        <circle
           id="circle871"
           r="86.286369"
           cy="439.14362"
           cx="587.90857"
           style="opacity:0.269;fill:#fffac0;fill-opacity:0.9344729;stroke-width:5.19797373" />
        <g
           id="g851">
          <g
             id="g849">
            <path
               id="path847"
               d="m 700,730.7 c -64.3,0 -124.8,-25 -170.2,-70.5 -45.5,-45.5 -70.5,-105.9 -70.5,-170.2 0,-64.3 25,-124.8 70.5,-170.2 45.5,-45.4 105.9,-70.5 170.2,-70.5 64.3,0 124.8,25 170.2,70.5 45.4,45.5 70.5,105.9 70.5,170.2 0,64.3 -25,124.8 -70.5,170.2 -45.4,45.5 -105.9,70.5 -170.2,70.5 z m 0,-454.4 c -117.9,0 -213.7,95.9 -213.7,213.7 0,117.9 95.9,213.7 213.7,213.7 117.8,0 213.7,-95.8 213.7,-213.7 0,-117.9 -95.8,-213.7 -213.7,-213.7 z"
               inkscape:connector-curvature="0"
               style="fill:#000d2f;fill-opacity:1" />
          </g>
        </g>
        <circle
           id="circle871-5"
           r="37.776787"
           cy="403.99048"
           cx="518.2594"
           style="opacity:0.269;fill:#fffac0;fill-opacity:0.9344729;stroke-width:2.27570987" />
      </g>
      <g
         style="stroke:#000000;stroke-opacity:1"
         transform="matrix(1.1151176,0,0,1.1151176,-2925.533,8953.668)"
         id="g821">
        <g
           style="stroke:#000000;stroke-opacity:1"
           transform="matrix(4.303991,0,0,4.303991,1167.8073,-13257.802)"
           id="g960">
          <g
             style="stroke:#000000;stroke-opacity:1"
             id="g958">
            <g
               style="fill:#f5f5f5;fill-opacity:1;stroke:#000000;stroke-opacity:1"
               transform="matrix(1.1215665,0,0,1.1215665,-147.80601,-323.38649)"
               id="aoOis22B">
              <flowRoot
                 transform="matrix(1.9932119,0,0,1.9932119,6557.9047,10319.431)"
                 style="font-style:normal;font-weight:normal;font-size:40px;line-height:1.25;font-family:sans-serif;letter-spacing:0px;word-spacing:0px;fill:#fffcdd;fill-opacity:1;stroke:none"
                 id="flowRoot1040"
                 xml:space="preserve"><flowRegion
                   style="fill:#fffcdd;fill-opacity:1"
                   id="flowRegion1042"><rect
                     style="fill:#fffcdd;fill-opacity:1"
                     y="-5051.0234"
                     x="-3257.1455"
                     height="691.51703"
                     width="2816.178"
                     id="rect1044" /></flowRegion><flowPara
                   style="font-style:normal;font-variant:normal;font-weight:normal;font-stretch:normal;font-size:160px;font-family:Porter;-inkscape-font-specification:Porter;letter-spacing:1.87805247px;fill:#fffcdd;fill-opacity:1"
                   id="flowPara1046">IR S</flowPara></flowRoot>            </g>
            <g
               style="fill:#fffcdd;fill-opacity:1;stroke:none;stroke-opacity:1"
               transform="matrix(1.495677,0,0,1.495677,-139.63613,-58.6302)"
               id="g1038">
              <g
                 style="fill:#fffcdd;fill-opacity:1;stroke:none;stroke-opacity:1"
                 id="g1028"
                 transform="translate(95.469862,247.98879)">
                <g
                   transform="translate(-100.26152,-384.22986)"
                   style="fill:#fffcdd;fill-opacity:1;stroke:none;stroke-opacity:1"
                   id="g945">
                  <g
                     transform="translate(-26.195999,-52.391997)"
                     style="fill:#fffcdd;fill-opacity:1;stroke:none;stroke-opacity:1"
                     id="g943">
                    <path
                       inkscape:connector-curvature="0"
                       d="m 96.475021,64.217021 c -0.343959,-0.09525 -1.026584,-0.08996 -1.367896,0.0079 -2.185458,0.637646 -3.868208,3.966104 -4.175125,8.257646 -0.03175,0.447146 -0.0344,1.008063 -0.02646,3.635375 0,0.206375 0.0053,1.243542 0.01323,3.106208 0.0344,0.164042 0.05292,0.256646 0.05556,0.272521 0.127,0.60325 0.407459,1.153584 0.714375,1.394354 0.121709,0.08996 0.185209,0.10848 0.447146,0.105834 0.261938,0 0.325438,-0.02117 0.447146,-0.111125 0.304271,-0.243417 0.587375,-0.799042 0.709083,-1.402292 0.05292,-0.275167 0.05556,-0.293687 0.06615,-3.283479 0.0079,-2.532063 0.01588,-3.061229 0.05027,-3.346979 0.05821,-0.494771 0.108479,-0.775229 0.216958,-1.203854 0.296334,-1.18798 0.828146,-2.061105 1.502834,-2.473855 0.201083,-0.121708 0.246062,-0.132291 0.669395,-0.134937 0.42598,-0.0026 0.468313,0.0053 0.672042,0.124354 1.000125,0.600604 1.672167,2.206625 1.764771,4.233333 0.0344,0.693209 0.04762,9.593792 0.01588,10.33198 -0.07144,1.73302 -0.558271,3.180291 -1.336146,3.950229 -0.298979,0.296333 -0.576792,0.436562 -0.963083,0.497416 -0.396875,0.06085 -0.605896,0.17198 -0.804334,0.433917 -0.248708,0.328083 -0.41275,0.762 -0.500062,1.317625 -0.0635,0.439208 -0.05027,1.17475 0.03175,1.582208 0.119062,0.597959 0.402167,1.153584 0.711729,1.389063 0.1905,0.148167 0.714375,0.177271 1.113896,0.06085 2.193396,-0.635 3.87615,-3.942292 4.191,-8.239125 0.0529,-0.738187 0.0318,-11.662833 -0.0238,-12.369271 -0.33602,-4.249208 -2.026711,-7.527396 -4.196294,-8.135937 z"
                       id="use941"
                       style="fill:#fffcdd;fill-opacity:1;stroke:none;stroke-width:0.26458332;stroke-opacity:1" />
                  </g>
                </g>
                <g
                   transform="translate(-130.75722,-434.68171)"
                   style="fill:#fffcdd;fill-opacity:1;stroke:none;stroke-opacity:1"
                   id="g953">
                  <path
                     inkscape:connector-curvature="0"
                     d="m 99.896083,93.117458 c -0.224896,-0.132291 -0.597958,-0.105833 -0.809625,0.05292 -0.304271,0.232833 -0.587375,0.79375 -0.709083,1.397 -0.05292,0.275167 -0.05556,0.293687 -0.06615,3.283479 -0.0079,2.532063 -0.01852,3.061223 -0.05292,3.346973 -0.05821,0.49477 -0.105833,0.77523 -0.214312,1.20386 -0.298979,1.19062 -0.830792,2.0611 -1.502833,2.47385 -0.201084,0.12171 -0.246063,0.13229 -0.672042,0.13494 -0.423333,0.003 -0.468313,-0.005 -0.669396,-0.127 -1.002771,-0.60061 -1.672167,-2.20398 -1.764771,-4.23069 -0.0344,-0.693204 -0.04762,-9.593787 -0.01852,-10.331975 0.07144,-1.73302 0.560917,-3.180291 1.336146,-3.950229 0.298979,-0.296333 0.576792,-0.436562 0.965729,-0.497416 0.179917,-0.02646 0.402167,-0.09525 0.48948,-0.142875 0.383645,-0.224896 0.693208,-0.836084 0.809625,-1.603375 0.06879,-0.4445 0.05556,-1.17475 -0.02646,-1.5875 -0.119062,-0.597959 -0.404812,-1.153584 -0.711729,-1.389063 -0.1905,-0.148167 -0.714375,-0.177271 -1.113896,-0.06085 -2.196041,0.635 -3.876146,3.942292 -4.191,8.239125 -0.05556,0.772583 -0.03969,11.546418 0.01852,12.316358 0.325438,4.27831 2.018771,7.57767 4.198938,8.18885 0.343958,0.0952 1.026583,0.09 1.370541,-0.008 1.987021,-0.58473 3.571875,-3.38138 4.063995,-7.19403 0.14023,-1.05833 0.14552,-1.27529 0.13759,-4.60904 -0.003,-2.815166 -0.005,-3.071812 -0.0476,-3.325812 -0.127,-0.754063 -0.43392,-1.354667 -0.820205,-1.579563 z"
                     id="use947"
                     style="fill:#fffcdd;fill-opacity:1;stroke:none;stroke-width:0.26458332;stroke-opacity:1" />
                  <g
                     style="fill:#fffcdd;fill-opacity:1;stroke:none;stroke-opacity:1"
                     id="g951">
                    <path
                       inkscape:connector-curvature="0"
                       d="m 99.896083,93.117458 c -0.224896,-0.132291 -0.597958,-0.105833 -0.809625,0.05292 -0.304271,0.232833 -0.587375,0.79375 -0.709083,1.397 -0.05292,0.275167 -0.05556,0.293687 -0.06615,3.283479 -0.0079,2.532063 -0.01852,3.061223 -0.05292,3.346973 -0.05821,0.49477 -0.105833,0.77523 -0.214312,1.20386 -0.298979,1.19062 -0.830792,2.0611 -1.502833,2.47385 -0.201084,0.12171 -0.246063,0.13229 -0.672042,0.13494 -0.423333,0.003 -0.468313,-0.005 -0.669396,-0.127 -1.002771,-0.60061 -1.672167,-2.20398 -1.764771,-4.23069 -0.0344,-0.693204 -0.04762,-9.593787 -0.01852,-10.331975 0.07144,-1.73302 0.560917,-3.180291 1.336146,-3.950229 0.298979,-0.296333 0.576792,-0.436562 0.965729,-0.497416 0.179917,-0.02646 0.402167,-0.09525 0.48948,-0.142875 0.383645,-0.224896 0.693208,-0.836084 0.809625,-1.603375 0.06879,-0.4445 0.05556,-1.17475 -0.02646,-1.5875 -0.119062,-0.597959 -0.404812,-1.153584 -0.711729,-1.389063 -0.1905,-0.148167 -0.714375,-0.177271 -1.113896,-0.06085 -2.196041,0.635 -3.876146,3.942292 -4.191,8.239125 -0.05556,0.772583 -0.03969,11.546418 0.01852,12.316358 0.325438,4.27831 2.018771,7.57767 4.198938,8.18885 0.343958,0.0952 1.026583,0.09 1.370541,-0.008 1.987021,-0.58473 3.571875,-3.38138 4.063995,-7.19403 0.14023,-1.05833 0.14552,-1.27529 0.13759,-4.60904 -0.003,-2.815166 -0.005,-3.071812 -0.0476,-3.325812 -0.127,-0.754063 -0.43392,-1.354667 -0.820205,-1.579563 z"
                       id="use949"
                       style="fill:#fffcdd;fill-opacity:1;stroke:none;stroke-width:0.26458332;stroke-opacity:1" />
                  </g>
                </g>
              </g>
            </g>
          </g>
        </g>
      </g>
    </g>
  </g>
</svg>
